<?xml version="1.0" encoding="utf-8"?>
<!-- Generator: Adobe Illustrator 16.0.3, SVG Export Plug-In . SVG Version: 6.00 Build 0)  -->
<!DOCTYPE svg PUBLIC "-//W3C//DTD SVG 1.0//EN" "http://www.w3.org/TR/2001/REC-SVG-20010904/DTD/svg10.dtd">
<svg version="1.0" id="Layer_1" xmlns="http://www.w3.org/2000/svg" xmlns:xlink="http://www.w3.org/1999/xlink" x="0px" y="0px"
	 width="50px" height="50px" viewBox="0 0 50 50" enable-background="new 0 0 50 50" xml:space="preserve">
<g>
	<circle fill="#A4A4A3" cx="25" cy="24.999" r="25"/>
	<g>
		<rect x="11.646" y="5.649" fill="#FFFFFF" width="26.599" height="26.6"/>
		<path fill="#A3A3A3" d="M17.578,12.278h5.127c0,0,4.652,7.201,4.794,7.396c0.14,0.194,0.156,0,0.156,0
			c-0.217-1.115-0.449-1.616-0.449-3.397v-3.999h5.107v13.343h-5.107c0,0-4.559-6.82-4.698-7.008c-0.135-0.188-0.155,0-0.155,0
			c0.175,0.922,0.331,1.074,0.331,2.672v4.336h-5.106V12.278z"/>
		<polygon fill="#FFFFFF" points="38.354,34.848 11.646,34.848 16.498,39.685 33.502,39.685 		"/>
		<polygon fill="#FFFFFF" points="25,48.163 31.1,42.081 18.9,42.081 		"/>
	</g>
</g>
</svg>
