<?xml version="1.0" encoding="utf-8"?>
<!-- Generator: Adobe Illustrator 16.0.3, SVG Export Plug-In . SVG Version: 6.00 Build 0)  -->
<!DOCTYPE svg PUBLIC "-//W3C//DTD SVG 1.0//EN" "http://www.w3.org/TR/2001/REC-SVG-20010904/DTD/svg10.dtd">
<svg version="1.0" id="Layer_1" xmlns="http://www.w3.org/2000/svg" xmlns:xlink="http://www.w3.org/1999/xlink" x="0px" y="0px"
	 width="50px" height="50px" viewBox="0 0 50 50" enable-background="new 0 0 50 50" xml:space="preserve">
<g>
	<circle fill="#A4A4A3" cx="25" cy="25" r="25"/>
	<g>
		<g>
			<path fill="#FFFFFF" d="M9.978,19.684c0,0-1.476,0-2.813,1.303v-5.248H3.854v13.789H7.2v-1.081c0,0,0.788,1.425,2.778,1.425
				c0,0,4.665-0.172,4.665-5.146C14.643,24.727,14.47,19.684,9.978,19.684z M9.25,26.961c-1.174,0-2.128-0.953-2.128-2.128
				c0-1.174,0.954-2.125,2.128-2.125s2.127,0.951,2.127,2.125C11.376,26.008,10.423,26.961,9.25,26.961z"/>
			<path fill="#FFFFFF" d="M15.705,15.431v3.19c0,0,1.511-0.069,1.511,2.744v8.164h3.189V20.61
				C20.405,20.61,20.542,15.431,15.705,15.431z"/>
			<path fill="#FFFFFF" d="M28.205,19.727c0,0-5.468,0.001-5.468,5.107c0,0-0.176,5.039,5.468,5.039c0,0,5.594-0.009,5.594-5.039
				C33.799,24.833,33.981,19.727,28.205,19.727z M28.207,26.961c-1.175,0-2.128-0.953-2.128-2.128c0-1.174,0.953-2.125,2.128-2.125
				c1.174,0,2.125,0.951,2.125,2.125C30.332,26.008,29.38,26.961,28.207,26.961z"/>
			<path fill="#FFFFFF" d="M42.931,20.062v0.925c0,0-0.952-1.26-2.777-1.26c0,0-4.682-0.197-4.682,5.072
				c0,0-0.052,4.909,4.553,4.909c0,0,1.877,0.077,2.906-1.261v0.772c0,0,0.232,2.418-2.109,2.418h-0.797v2.932h1.286
				c0,0,4.836,0.052,4.836-5.17v-9.337H42.931z M40.953,26.961c-1.175,0-2.127-0.953-2.127-2.128c0-1.174,0.952-2.125,2.127-2.125
				c1.174,0,2.127,0.951,2.127,2.125C43.08,26.008,42.126,26.961,40.953,26.961z"/>
		</g>
	</g>
</g>
</svg>
