<?xml version="1.0" encoding="utf-8"?>
<!-- Generator: Adobe Illustrator 16.0.3, SVG Export Plug-In . SVG Version: 6.00 Build 0)  -->
<!DOCTYPE svg PUBLIC "-//W3C//DTD SVG 1.0//EN" "http://www.w3.org/TR/2001/REC-SVG-20010904/DTD/svg10.dtd">
<svg version="1.0" id="Layer_1" xmlns="http://www.w3.org/2000/svg" xmlns:xlink="http://www.w3.org/1999/xlink" x="0px" y="0px"
	 width="50px" height="50px" viewBox="0 0 50 50" enable-background="new 0 0 50 50" xml:space="preserve">
<g>
	<circle fill="#A4A4A3" cx="25" cy="25" r="25"/>
	<g>
		<path fill="#FFFFFF" d="M41.831,25.822c-0.013,0.447-0.019,0.832-0.019,1.154c0,0.323-0.013,0.683-0.037,1.08
			c-0.025,0.396-0.063,0.844-0.112,1.34c-0.05,0.472-0.106,0.931-0.167,1.378c-0.062,0.446-0.144,0.855-0.242,1.228
			c-0.074,0.423-0.218,0.819-0.428,1.191c-0.211,0.373-0.465,0.708-0.763,1.006c-0.322,0.272-0.67,0.496-1.042,0.67
			c-0.373,0.174-0.758,0.285-1.154,0.335c-1.316,0.148-2.966,0.261-4.951,0.335c-1.986,0.074-4.306,0.111-6.961,0.111
			s-4.976-0.037-6.961-0.111c-1.986-0.074-3.636-0.187-4.951-0.335c-0.397-0.05-0.782-0.161-1.154-0.335
			c-0.372-0.174-0.72-0.397-1.042-0.67c-0.323-0.298-0.583-0.633-0.782-1.006c-0.199-0.372-0.348-0.769-0.447-1.191
			c-0.075-0.372-0.143-0.781-0.205-1.228c-0.062-0.447-0.118-0.906-0.167-1.378c-0.05-0.496-0.087-0.943-0.111-1.34
			c-0.025-0.397-0.038-0.757-0.038-1.08c0-0.322-0.006-0.707-0.019-1.154c-0.013-0.447-0.019-0.956-0.019-1.526
			s0.006-1.073,0.019-1.508c0.012-0.434,0.019-0.813,0.019-1.135s0.012-0.683,0.038-1.08c0.024-0.397,0.062-0.844,0.111-1.34
			c0.049-0.496,0.105-0.961,0.167-1.396c0.062-0.434,0.143-0.837,0.242-1.21c0.074-0.447,0.217-0.85,0.428-1.21
			c0.21-0.36,0.465-0.688,0.763-0.986c0.322-0.298,0.67-0.534,1.042-0.708c0.373-0.174,0.757-0.286,1.154-0.335
			c1.315-0.124,2.965-0.224,4.951-0.298c1.985-0.075,4.306-0.112,6.961-0.112s4.976,0.037,6.961,0.112
			c1.985,0.074,3.635,0.174,4.951,0.298c0.396,0.049,0.782,0.161,1.154,0.335c0.372,0.174,0.72,0.41,1.042,0.708
			s0.583,0.626,0.782,0.986c0.198,0.36,0.347,0.763,0.446,1.21c0.075,0.373,0.143,0.776,0.205,1.21
			c0.062,0.435,0.117,0.9,0.167,1.396c0.049,0.497,0.087,0.943,0.112,1.34c0.024,0.397,0.037,0.757,0.037,1.08
			s0.005,0.701,0.019,1.135c0.012,0.435,0.019,0.937,0.019,1.508S41.843,25.375,41.831,25.822z M32.635,23.756
			c-0.087-0.162-0.218-0.292-0.391-0.391l-9.083-5.696c-0.199-0.124-0.391-0.186-0.577-0.186s-0.378,0.05-0.577,0.149
			c-0.199,0.124-0.348,0.267-0.447,0.428c-0.1,0.161-0.149,0.354-0.149,0.577v11.354c0,0.224,0.049,0.416,0.149,0.577
			c0.099,0.161,0.248,0.291,0.447,0.391c0.099,0.05,0.192,0.087,0.279,0.111c0.087,0.025,0.18,0.038,0.279,0.038
			c0.099,0,0.198-0.013,0.298-0.038c0.099-0.024,0.198-0.074,0.298-0.148l9.083-5.659c0.173-0.099,0.303-0.229,0.391-0.391
			c0.087-0.162,0.13-0.354,0.13-0.577C32.766,24.097,32.722,23.917,32.635,23.756z"/>
	</g>
</g>
</svg>
