<?xml version="1.0" encoding="utf-8"?>
<!-- Generator: Adobe Illustrator 16.0.3, SVG Export Plug-In . SVG Version: 6.00 Build 0)  -->
<!DOCTYPE svg PUBLIC "-//W3C//DTD SVG 1.0//EN" "http://www.w3.org/TR/2001/REC-SVG-20010904/DTD/svg10.dtd">
<svg version="1.0" id="Layer_1" xmlns="http://www.w3.org/2000/svg" xmlns:xlink="http://www.w3.org/1999/xlink" x="0px" y="0px"
	 width="50px" height="50px" viewBox="0 0 50 50" enable-background="new 0 0 50 50" xml:space="preserve">
<g>
	<circle fill="#A4A4A3" cx="25" cy="25" r="25"/>
	<g>
		<path fill="#FFFFFF" d="M25.953,8.436c2.135,0,3.542,0,4.226,0c0.682,0,1.445,0.025,2.289,0.075
			c0.843,0.025,1.583,0.112,2.215,0.261c0.633,0.148,1.185,0.298,1.657,0.446c0.521,0.249,1.023,0.497,1.507,0.745
			c0.484,0.249,0.936,0.609,1.359,1.08c0.447,0.472,0.805,0.937,1.08,1.396c0.273,0.46,0.521,0.949,0.745,1.471
			c0.198,0.521,0.358,1.092,0.483,1.712s0.21,1.34,0.261,2.159c0.023,0.844,0.043,1.607,0.056,2.29
			c0.013,0.683,0.02,2.091,0.02,4.225c0,2.159-0.007,3.581-0.02,4.262c-0.013,0.684-0.032,1.434-0.056,2.252
			c-0.051,0.844-0.144,1.589-0.279,2.234s-0.292,1.204-0.465,1.675c-0.2,0.546-0.442,1.049-0.726,1.508
			c-0.285,0.46-0.651,0.912-1.098,1.358c-0.472,0.423-0.937,0.77-1.396,1.043c-0.46,0.273-0.949,0.534-1.47,0.781
			c-0.498,0.199-1.056,0.354-1.675,0.466c-0.621,0.111-1.354,0.192-2.197,0.241c-0.844,0.025-1.607,0.044-2.289,0.057
			c-0.684,0.013-2.091,0.019-4.226,0.019c-2.135,0-3.543-0.006-4.226-0.019c-0.683-0.013-1.446-0.031-2.289-0.057
			c-0.844-0.049-1.583-0.143-2.215-0.279c-0.633-0.135-1.186-0.279-1.656-0.428c-0.571-0.198-1.086-0.446-1.545-0.744
			c-0.459-0.298-0.9-0.657-1.322-1.08c-0.447-0.496-0.807-0.967-1.08-1.414c-0.273-0.447-0.521-0.931-0.745-1.452
			c-0.199-0.521-0.36-1.092-0.484-1.712c-0.125-0.62-0.211-1.354-0.26-2.197c-0.025-0.818-0.044-1.568-0.056-2.252
			c-0.013-0.682-0.019-2.104-0.019-4.262c0-2.134,0.006-3.542,0.019-4.225c0.012-0.683,0.031-1.446,0.056-2.29
			c0.049-0.819,0.142-1.551,0.279-2.196c0.136-0.646,0.292-1.204,0.465-1.675c0.224-0.521,0.471-1.018,0.745-1.489
			c0.273-0.471,0.633-0.931,1.08-1.377c0.422-0.447,0.875-0.8,1.359-1.061c0.484-0.26,0.986-0.515,1.508-0.763
			c0.496-0.198,1.055-0.359,1.675-0.484c0.62-0.124,1.353-0.198,2.196-0.223c0.843-0.05,1.606-0.075,2.289-0.075
			C22.41,8.436,23.818,8.436,25.953,8.436z M25.953,11.266c-2.109,0-3.5,0.019-4.169,0.056c-0.67,0.037-1.428,0.056-2.271,0.056
			c-0.745,0.025-1.353,0.106-1.824,0.242c-0.471,0.137-0.844,0.267-1.117,0.391c-0.397,0.1-0.732,0.237-1.005,0.41
			c-0.273,0.174-0.546,0.41-0.819,0.708c-0.223,0.273-0.435,0.553-0.633,0.837c-0.199,0.286-0.36,0.614-0.484,0.987
			c-0.149,0.273-0.279,0.639-0.391,1.098c-0.112,0.459-0.193,1.074-0.242,1.842c-0.025,0.819-0.044,1.57-0.056,2.252
			c-0.013,0.683-0.019,2.066-0.019,4.151c0,2.11,0.006,3.505,0.019,4.188c0.012,0.684,0.031,1.434,0.056,2.252
			c0.049,0.77,0.143,1.384,0.279,1.843c0.136,0.46,0.254,0.825,0.354,1.099c0.124,0.396,0.273,0.732,0.447,1.005
			c0.173,0.273,0.397,0.546,0.67,0.819c0.273,0.248,0.559,0.465,0.856,0.65c0.298,0.188,0.62,0.342,0.968,0.467
			c0.273,0.148,0.646,0.278,1.117,0.391c0.471,0.111,1.08,0.167,1.824,0.167c0.843,0.05,1.601,0.075,2.271,0.075
			c0.67,0,2.06,0,4.169,0c2.108,0,3.5,0,4.169,0c0.67,0,1.427-0.025,2.271-0.075c0.745-0.05,1.353-0.136,1.824-0.261
			c0.47-0.124,0.842-0.223,1.117-0.297c0.396-0.125,0.731-0.273,1.005-0.447c0.273-0.174,0.544-0.396,0.819-0.67
			c0.223-0.273,0.433-0.559,0.633-0.856c0.199-0.298,0.358-0.62,0.484-0.968c0.149-0.273,0.279-0.639,0.391-1.099
			c0.111-0.459,0.167-1.073,0.167-1.843c0.023-0.818,0.042-1.568,0.056-2.252c0.012-0.683,0.019-2.078,0.019-4.188
			c0-2.085-0.006-3.468-0.019-4.151c-0.014-0.683-0.032-1.433-0.056-2.252c-0.051-0.769-0.137-1.383-0.261-1.842
			c-0.125-0.459-0.224-0.825-0.298-1.098c-0.125-0.396-0.274-0.732-0.447-1.005c-0.174-0.273-0.397-0.545-0.67-0.819
			c-0.274-0.248-0.559-0.471-0.856-0.67c-0.298-0.198-0.62-0.347-0.968-0.447c-0.274-0.173-0.646-0.316-1.117-0.428
			c-0.472-0.112-1.08-0.18-1.824-0.205c-0.844-0.049-1.601-0.08-2.271-0.093C29.453,11.271,28.062,11.266,25.953,11.266z
			 M29.136,16.85c0.98,0.422,1.836,0.993,2.569,1.712c0.73,0.72,1.308,1.577,1.731,2.568c0.422,0.993,0.633,2.048,0.633,3.165
			c0,1.142-0.211,2.203-0.633,3.182c-0.423,0.981-1,1.838-1.731,2.569c-0.732,0.731-1.588,1.31-2.569,1.731
			c-0.981,0.422-2.042,0.633-3.183,0.633c-1.142,0-2.203-0.211-3.183-0.633c-0.981-0.422-1.837-1.006-2.568-1.75
			c-0.732-0.744-1.309-1.606-1.731-2.588c-0.422-0.979-0.633-2.028-0.633-3.145c0-1.092,0.21-2.134,0.633-3.127
			c0.422-0.992,0.999-1.855,1.731-2.587c0.731-0.731,1.587-1.309,2.568-1.731c0.98-0.422,2.042-0.633,3.183-0.633
			C27.094,16.217,28.155,16.428,29.136,16.85z M29.713,28.073c1.042-1.029,1.563-2.289,1.563-3.778c0-1.464-0.521-2.718-1.563-3.76
			c-1.042-1.042-2.296-1.563-3.76-1.563c-1.465,0-2.718,0.521-3.76,1.563c-1.042,1.042-1.564,2.295-1.564,3.76
			c0,1.489,0.521,2.749,1.564,3.778c1.042,1.031,2.295,1.545,3.76,1.545C27.417,29.618,28.671,29.104,29.713,28.073z M35.781,14.467
			c-0.372-0.372-0.819-0.558-1.34-0.558c-0.521,0-0.968,0.186-1.34,0.558c-0.373,0.373-0.559,0.819-0.559,1.34
			s0.186,0.968,0.559,1.34c0.372,0.372,0.819,0.558,1.34,0.558c0.521,0,0.968-0.186,1.34-0.558c0.372-0.373,0.559-0.819,0.559-1.34
			S36.153,14.839,35.781,14.467z"/>
	</g>
</g>
</svg>
